<svg width="188" height="75" fill="none" xmlns="http://www.w3.org/2000/svg"><path d="M24.619 30.208a1 1 0 0 0 1 1h11.25a1 1 0 0 1 1 1v3.525a.958.958 0 0 1-.454.825c-2.596 1.566-5.554 2.106-9.102 2.106-9.348 0-15.22-5.053-15.22-14.04.009-8.979 5.872-14.041 15.22-14.041 3.521 0 6.46.524 9.042 2.069.32.192.72.21 1.046.03l8.96-4.966c.587-.325.693-1.126.178-1.558C43.137 2.456 36.391 0 27.714 0 11.45 0 .977 9.51.958 24.614v.037c.01 15.104 10.492 24.614 26.756 24.614 9.139 0 16.14-2.73 20.52-6.77a.971.971 0 0 0 .308-.716V22.294a1 1 0 0 0-1-1H25.62a1 1 0 0 0-1 1v7.914ZM85.634 41.12a1 1 0 0 0-.914-.594H67.299a1 1 0 0 0-.915.595l-2.894 6.54a1 1 0 0 1-.915.596H52.083a1 1 0 0 1-.922-1.39L70.338 1.456a1 1 0 0 1 .92-.611h9.51a1 1 0 0 1 .922.61l19.177 45.413a1 1 0 0 1-.922 1.39H89.444a1 1 0 0 1-.915-.596l-2.895-6.54ZM70.656 29.78a1 1 0 0 0 .935 1.355h8.907a1 1 0 0 0 .936-1.351l-4.426-11.811c-.323-.864-1.544-.866-1.871-.004L70.656 29.78ZM132.756 48.258l-.001-.003-8.256-12.182a.617.617 0 0 0-.51-.27h-5.852a1 1 0 0 0-1 1v10.453a1 1 0 0 1-1 1h-9.536a1 1 0 0 1-1-1V1.908a1 1 0 0 1 1-1h18.377c12.987 0 19.966 6.19 19.966 17.452 0 7.039-2.768 11.858-7.756 14.636-.548.305-.734 1.02-.366 1.528l8.814 12.154a1 1 0 0 1-.809 1.588h-12.064a.007.007 0 0 1-.007-.008Zm-15.619-22.186h6.725c6.389 0 8.966-3.2 8.966-7.061 0-5.264-2.441-7.997-8.631-7.997h-6.051a1 1 0 0 0-1 1v14.05c0 .004-.004.008-.009.008ZM187 .835h-38.269a1 1 0 0 0-1 1v8.922a1 1 0 0 0 1 1H187a1 1 0 0 0 1-1V1.835a1 1 0 0 0-1-1Z" fill="#37455C"/><path d="M174.331 44.302a1 1 0 0 0 1.553-.834V38.44c0-.336-.169-.649-.448-.834L166.974 32a1 1 0 0 1-.447-.834v-4.47a1 1 0 0 1 1.552-.833l6.252 4.142a1 1 0 0 0 1.553-.833V11.4a1 1 0 0 0-1-1h-13.91a1 1 0 0 0-1 1v22.848a1 1 0 0 0 .447.833l13.91 9.22ZM161.526 43.325a1 1 0 0 0-1.552.833v5.25a1 1 0 0 0 .447.832l8.563 5.68a1 1 0 0 1 .447.833v4.462a1 1 0 0 1-1.552.833l-6.353-4.207a1 1 0 0 0-1.552.834v8.014c0 .275.114.539.314.728l6.951 6.55a1 1 0 0 0 1.371 0l6.959-6.55a1 1 0 0 0 .315-.728v-13.31a1 1 0 0 0-.448-.834l-13.91-9.22Z" fill="#37455C"/></svg>