<svg width="286" height="331" fill="none" xmlns="http://www.w3.org/2000/svg"><path d="M282.022 250.874a7.998 7.998 0 0 0 3.978-6.915V86.828a8 8 0 0 0-3.978-6.916L147.024 1.398a8 8 0 0 0-8.044 0L3.978 79.912A8 8 0 0 0 0 86.828v157.131a7.999 7.999 0 0 0 3.978 6.915l135.002 78.515a8 8 0 0 0 8.044 0l134.998-78.515Z" fill="#4D5C75"/><path d="M256.46 182.147a8 8 0 0 0 8-8V99.394a8 8 0 0 0-3.979-6.916L147.022 26.525a8 8 0 0 0-8.041 0L25.519 92.478a8 8 0 0 0-3.98 6.916v74.753a8 8 0 0 0 8 8H256.46Z" fill="#fff"/></svg>